<svg width="177" height="61" viewBox="0 0 177 61" fill="none" xmlns="http://www.w3.org/2000/svg">
<g clip-path="url(#clip0_647_9)">
<path d="M75.9219 26.4751C75.9219 26.825 75.7144 27 75.2993 27H72.3696C72.0604 27 71.7186 26.8901 71.3442 26.6704C70.978 26.4425 70.6973 26.1699 70.502 25.8525L68.4268 22.6055C67.5723 21.2708 66.5387 20.6035 65.3262 20.6035H62.3477V25.8525C62.3477 26.1699 62.2337 26.4425 62.0059 26.6704C61.7861 26.8901 61.5176 27 61.2002 27H58.9053C58.5879 27 58.3153 26.8901 58.0874 26.6704C57.8595 26.4425 57.7456 26.1699 57.7456 25.8525V10.6548C57.7456 10.3374 57.8555 10.0648 58.0752 9.83691C58.2949 9.60905 58.5635 9.49512 58.8809 9.49512H68.9517C70.8153 9.49512 72.3411 9.99561 73.5293 10.9966C74.7256 11.9976 75.3237 13.3485 75.3237 15.0493C75.3237 17.4175 73.7897 18.9027 70.7217 19.5049C71.21 19.6839 71.6616 19.9932 72.0767 20.4326C72.4917 20.8639 72.9678 21.4946 73.5049 22.3247L75.7266 25.8525C75.8568 26.0804 75.9219 26.2879 75.9219 26.4751ZM62.3477 17.1489H67.5479C68.3861 17.1489 69.1226 16.9821 69.7573 16.6484C70.4002 16.3148 70.7217 15.7817 70.7217 15.0493C70.7217 14.3169 70.4002 13.7839 69.7573 13.4502C69.1226 13.1165 68.3861 12.9497 67.5479 12.9497H62.3477V17.1489ZM78.7173 25.4619C77.464 24.2738 76.8374 22.5648 76.8374 20.335C76.8374 18.097 77.4681 16.3799 78.7295 15.1836C79.9909 13.9792 81.7406 13.377 83.9785 13.377C86.2165 13.377 87.9621 13.9629 89.2153 15.1348C90.4686 16.2985 91.0952 17.9709 91.0952 20.1519V20.8477C91.0952 21.0674 91.022 21.2505 90.8755 21.397C90.7371 21.5353 90.5581 21.6045 90.3384 21.6045H81.1465C81.2279 22.6055 81.5127 23.3338 82.001 23.7896C82.4974 24.2453 83.2868 24.4731 84.3691 24.4731C85.4515 24.4731 86.1921 24.229 86.5908 23.7407C86.9896 23.2524 87.4819 23.0042 88.0679 22.9961H89.8867C90.1064 22.9961 90.2855 23.0693 90.4238 23.2158C90.5703 23.3542 90.6436 23.5332 90.6436 23.7529C90.6436 26.0885 88.4178 27.2523 83.9663 27.2441C81.7202 27.2441 79.9705 26.6501 78.7173 25.4619ZM81.1221 19.0288H86.7983C86.717 17.1082 85.7729 16.1479 83.9663 16.1479C82.1678 16.1479 81.2197 17.1082 81.1221 19.0288ZM98.7612 25.9746C96.9139 25.9746 95.4206 25.4172 94.2812 24.3022C93.1501 23.1873 92.5845 21.6411 92.5845 19.6636C92.5845 17.686 93.2314 16.1439 94.5254 15.0371C95.8193 13.9303 97.6748 13.377 100.092 13.377C101.272 13.377 102.497 13.5112 103.766 13.7798C105.036 14.0402 105.992 14.3617 106.635 14.7441V26.0479C106.635 27.8626 106.037 29.2013 104.84 30.064C103.644 30.9347 101.964 31.3701 99.7988 31.3701C97.6423 31.3701 95.978 31.0975 94.8062 30.5522C93.6424 30.0151 93.0605 29.124 93.0605 27.8789C93.0605 27.6592 93.1297 27.4761 93.2681 27.3296C93.4146 27.1912 93.5977 27.1221 93.8174 27.1221H95.6362C96.2222 27.1221 96.6901 27.3377 97.04 27.769C97.4876 28.3224 98.2811 28.5991 99.4204 28.5991C100.568 28.5991 101.353 28.4119 101.776 28.0376C102.2 27.6632 102.411 27 102.411 26.0479V25.4741C101.109 25.8078 99.8924 25.9746 98.7612 25.9746ZM99.8354 16.3311C97.9067 16.3229 96.9424 17.4378 96.9424 19.6758C96.9424 21.9056 97.8823 23.0205 99.7622 23.0205C100.543 23.0205 101.426 22.8984 102.411 22.6543V16.5996C101.711 16.4124 100.853 16.3229 99.8354 16.3311ZM110.773 25.4619C109.52 24.2738 108.893 22.5648 108.893 20.335C108.893 18.097 109.524 16.3799 110.785 15.1836C112.047 13.9792 113.796 13.377 116.034 13.377C118.272 13.377 120.018 13.9629 121.271 15.1348C122.524 16.2985 123.151 17.9709 123.151 20.1519V20.8477C123.151 21.0674 123.078 21.2505 122.931 21.397C122.793 21.5353 122.614 21.6045 122.394 21.6045H113.202C113.284 22.6055 113.568 23.3338 114.057 23.7896C114.553 24.2453 115.342 24.4731 116.425 24.4731C117.507 24.4731 118.248 24.229 118.646 23.7407C119.045 23.2524 119.538 23.0042 120.124 22.9961H121.942C122.162 22.9961 122.341 23.0693 122.479 23.2158C122.626 23.3542 122.699 23.5332 122.699 23.7529C122.699 26.0885 120.473 27.2523 116.022 27.2441C113.776 27.2441 112.026 26.6501 110.773 25.4619ZM113.178 19.0288H118.854C118.773 17.1082 117.829 16.1479 116.022 16.1479C114.223 16.1479 113.275 17.1082 113.178 19.0288ZM125.397 26.2554V14.3779C125.397 14.1582 125.466 13.9792 125.604 13.8408C125.751 13.6943 125.93 13.6211 126.142 13.6211H128.876C129.088 13.6211 129.263 13.6943 129.401 13.8408C129.547 13.9792 129.621 14.1582 129.621 14.3779V15.147C131.02 13.967 132.51 13.377 134.088 13.377C135.675 13.377 136.965 13.8612 137.958 14.8296C138.951 15.7899 139.447 17.2629 139.447 19.2485V26.2554C139.447 26.467 139.374 26.646 139.228 26.7925C139.089 26.9308 138.91 27 138.69 27H135.968C135.757 27 135.578 26.9308 135.431 26.7925C135.293 26.646 135.224 26.467 135.224 26.2554V19.2485C135.224 17.3035 134.446 16.3311 132.892 16.3311C131.875 16.3311 130.784 16.9129 129.621 18.0767V26.2554C129.621 26.467 129.547 26.646 129.401 26.7925C129.263 26.9308 129.088 27 128.876 27H126.142C125.93 27 125.751 26.9308 125.604 26.7925C125.466 26.646 125.397 26.467 125.397 26.2554ZM148.834 24.3511L150.507 24.2046H150.958C151.178 24.2046 151.357 24.2738 151.496 24.4121C151.642 24.5505 151.715 24.7295 151.715 24.9492V26.2554C151.715 26.4344 151.642 26.5972 151.496 26.7437C151.357 26.882 151.178 26.9674 150.958 27C150.128 27.1628 149.046 27.2441 147.711 27.2441C144.212 27.2441 142.462 25.4131 142.462 21.751V10.252C142.462 10.0322 142.532 9.85319 142.67 9.71484C142.816 9.56836 142.995 9.49512 143.207 9.49512H145.941C146.153 9.49512 146.328 9.56836 146.466 9.71484C146.613 9.85319 146.686 10.0322 146.686 10.252V14.3291H150.092C150.303 14.3291 150.478 14.3983 150.617 14.5366C150.763 14.675 150.836 14.854 150.836 15.0737V16.5264C150.836 16.7461 150.763 16.9251 150.617 17.0635C150.478 17.2018 150.303 17.271 150.092 17.271H146.686V21.751C146.686 22.5811 146.881 23.224 147.272 23.6797C147.663 24.1273 148.183 24.3511 148.834 24.3511ZM57.7456 51.8525V36.6548C57.7456 36.3374 57.8555 36.0648 58.0752 35.8369C58.2949 35.609 58.5635 35.4951 58.8809 35.4951H68.1948C73.1183 35.4951 75.5801 37.7656 75.5801 42.3066C75.5801 46.8395 73.1183 49.106 68.1948 49.106H62.3477V51.8525C62.3477 52.1699 62.2337 52.4425 62.0059 52.6704C61.7861 52.8901 61.5176 53 61.2002 53H58.9053C58.5879 53 58.3153 52.8901 58.0874 52.6704C57.8595 52.4425 57.7456 52.1699 57.7456 51.8525ZM62.3477 45.6514H66.8032C68.1704 45.6514 69.208 45.4235 69.916 44.9678C70.624 44.5039 70.978 43.6169 70.978 42.3066C70.978 40.9883 70.624 40.1012 69.916 39.6455C69.208 39.1816 68.1704 38.9497 66.8032 38.9497H62.3477V45.6514ZM78.4487 52.1211C77.3745 51.3724 76.8374 50.3145 76.8374 48.9473C76.8374 47.5801 77.3745 46.5303 78.4487 45.7979C79.5311 45.0654 80.9227 44.6992 82.6235 44.6992H86.6641C86.6641 43.7471 86.4647 43.0838 86.0659 42.7095C85.6672 42.3351 84.9673 42.1479 83.9663 42.1479C82.9735 42.1479 82.2736 42.3962 81.8667 42.8926C81.4679 43.3809 80.9756 43.625 80.3896 43.625H78.5708C78.3511 43.625 78.168 43.5558 78.0215 43.4175C77.8831 43.271 77.814 43.092 77.814 42.8804C77.814 40.5448 80.0316 39.377 84.4668 39.377C86.4036 39.377 87.958 39.8123 89.1299 40.6831C90.3018 41.5457 90.8877 42.8844 90.8877 44.6992V52.2554C90.8877 52.4751 90.8185 52.6541 90.6802 52.7925C90.5418 52.9308 90.3628 53 90.1431 53H87.7871C87.5674 53 87.3883 52.9308 87.25 52.7925C87.1117 52.646 87.0425 52.467 87.0425 52.2554V51.877C85.7567 52.7965 84.2715 53.2523 82.5869 53.2441C80.9105 53.2441 79.5311 52.8698 78.4487 52.1211ZM82.9165 47.4702C82.3468 47.4702 81.8952 47.6086 81.5615 47.8853C81.236 48.1619 81.0732 48.52 81.0732 48.9595C81.0732 49.3989 81.2441 49.7611 81.5859 50.0459C81.9277 50.3307 82.4119 50.4731 83.0386 50.4731C84.2918 50.4731 85.5003 50.1069 86.6641 49.3745V47.4702H82.9165ZM103.156 42.7217L101.276 42.6484C100.177 42.6484 99.1274 43.2507 98.1265 44.4551V52.2554C98.1265 52.4751 98.0532 52.6541 97.9067 52.7925C97.7684 52.9308 97.5934 53 97.3818 53H94.6475C94.4277 53 94.2487 52.9308 94.1104 52.7925C93.972 52.6541 93.9028 52.4751 93.9028 52.2554V40.3779C93.9028 40.1582 93.972 39.9792 94.1104 39.8408C94.2568 39.6943 94.4359 39.6211 94.6475 39.6211H97.3818C97.6016 39.6211 97.7806 39.6943 97.9189 39.8408C98.0573 39.9792 98.1265 40.1582 98.1265 40.3779V41.147C98.9565 40.5448 99.7541 40.1012 100.519 39.8164C101.292 39.5234 102.301 39.377 103.546 39.377C103.766 39.377 103.945 39.4502 104.083 39.5967C104.23 39.735 104.303 39.91 104.303 40.1216V41.9771C104.303 42.1968 104.23 42.3758 104.083 42.5142C103.945 42.6525 103.766 42.7217 103.546 42.7217H103.156ZM112.433 50.3511L114.105 50.2046H114.557C114.777 50.2046 114.956 50.2738 115.094 50.4121C115.241 50.5505 115.314 50.7295 115.314 50.9492V52.2554C115.314 52.4344 115.241 52.5972 115.094 52.7437C114.956 52.882 114.777 52.9674 114.557 53C113.727 53.1628 112.645 53.2441 111.31 53.2441C107.811 53.2441 106.061 51.4131 106.061 47.751V36.252C106.061 36.0322 106.13 35.8532 106.269 35.7148C106.415 35.5684 106.594 35.4951 106.806 35.4951H109.54C109.752 35.4951 109.927 35.5684 110.065 35.7148C110.211 35.8532 110.285 36.0322 110.285 36.252V40.3291H113.69C113.902 40.3291 114.077 40.3983 114.215 40.5366C114.362 40.675 114.435 40.854 114.435 41.0737V42.5264C114.435 42.7461 114.362 42.9251 114.215 43.0635C114.077 43.2018 113.902 43.271 113.69 43.271H110.285V47.751C110.285 48.5811 110.48 49.224 110.871 49.6797C111.261 50.1273 111.782 50.3511 112.433 50.3511ZM117.316 52.2554V40.3779C117.316 40.1582 117.385 39.9792 117.523 39.8408C117.67 39.6943 117.849 39.6211 118.061 39.6211H120.795C121.007 39.6211 121.181 39.6943 121.32 39.8408C121.466 39.9792 121.54 40.1582 121.54 40.3779V41.147C122.939 39.967 124.429 39.377 126.007 39.377C127.594 39.377 128.884 39.8612 129.877 40.8296C130.87 41.7899 131.366 43.2629 131.366 45.2485V52.2554C131.366 52.467 131.293 52.646 131.146 52.7925C131.008 52.9308 130.829 53 130.609 53H127.887C127.676 53 127.497 52.9308 127.35 52.7925C127.212 52.646 127.143 52.467 127.143 52.2554V45.2485C127.143 43.3035 126.365 42.3311 124.811 42.3311C123.794 42.3311 122.703 42.9129 121.54 44.0767V52.2554C121.54 52.467 121.466 52.646 121.32 52.7925C121.181 52.9308 121.007 53 120.795 53H118.061C117.849 53 117.67 52.9308 117.523 52.7925C117.385 52.646 117.316 52.467 117.316 52.2554ZM135.504 51.4619C134.251 50.2738 133.625 48.5648 133.625 46.335C133.625 44.097 134.255 42.3799 135.517 41.1836C136.778 39.9792 138.528 39.377 140.766 39.377C143.004 39.377 144.749 39.9629 146.002 41.1348C147.256 42.2985 147.882 43.9709 147.882 46.1519V46.8477C147.882 47.0674 147.809 47.2505 147.663 47.397C147.524 47.5353 147.345 47.6045 147.125 47.6045H137.934C138.015 48.6055 138.3 49.3338 138.788 49.7896C139.285 50.2453 140.074 50.4731 141.156 50.4731C142.239 50.4731 142.979 50.229 143.378 49.7407C143.777 49.2524 144.269 49.0042 144.855 48.9961H146.674C146.894 48.9961 147.073 49.0693 147.211 49.2158C147.357 49.3542 147.431 49.5332 147.431 49.7529C147.431 52.0885 145.205 53.2523 140.753 53.2441C138.507 53.2441 136.758 52.6501 135.504 51.4619ZM137.909 45.0288H143.585C143.504 43.1082 142.56 42.1479 140.753 42.1479C138.955 42.1479 138.007 43.1082 137.909 45.0288ZM159.381 42.7217L157.501 42.6484C156.403 42.6484 155.353 43.2507 154.352 44.4551V52.2554C154.352 52.4751 154.279 52.6541 154.132 52.7925C153.994 52.9308 153.819 53 153.607 53H150.873C150.653 53 150.474 52.9308 150.336 52.7925C150.198 52.6541 150.128 52.4751 150.128 52.2554V40.3779C150.128 40.1582 150.198 39.9792 150.336 39.8408C150.482 39.6943 150.661 39.6211 150.873 39.6211H153.607C153.827 39.6211 154.006 39.6943 154.145 39.8408C154.283 39.9792 154.352 40.1582 154.352 40.3779V41.147C155.182 40.5448 155.98 40.1012 156.745 39.8164C157.518 39.5234 158.527 39.377 159.772 39.377C159.992 39.377 160.171 39.4502 160.309 39.5967C160.456 39.735 160.529 39.91 160.529 40.1216V41.9771C160.529 42.1968 160.456 42.3758 160.309 42.5142C160.171 42.6525 159.992 42.7217 159.772 42.7217H159.381ZM161.53 43.3198C161.53 40.6912 163.65 39.377 167.89 39.377C172.349 39.377 174.579 40.5448 174.579 42.8804C174.579 43.092 174.51 43.271 174.372 43.4175C174.233 43.5558 174.054 43.625 173.834 43.625H172.016C171.43 43.625 170.937 43.3809 170.539 42.8926C170.14 42.3962 169.354 42.1479 168.183 42.1479C166.571 42.1479 165.766 42.5386 165.766 43.3198C165.766 43.686 166.079 43.9912 166.706 44.2354C167.34 44.4795 168.109 44.6951 169.013 44.8823C169.924 45.0614 170.832 45.2933 171.735 45.5781C172.638 45.863 173.403 46.3187 174.03 46.9453C174.665 47.5638 174.982 48.3491 174.982 49.3013C174.982 51.9299 172.744 53.2441 168.268 53.2441C163.792 53.2441 161.554 52.0804 161.554 49.7529C161.554 49.5332 161.623 49.3542 161.762 49.2158C161.908 49.0693 162.091 48.9961 162.311 48.9961H164.13C164.716 48.9961 165.208 49.2443 165.607 49.7407C166.006 50.229 166.791 50.4731 167.963 50.4731C169.826 50.4731 170.758 50.0825 170.758 49.3013C170.758 48.9351 170.441 48.6299 169.806 48.3857C169.18 48.1416 168.41 47.9259 167.499 47.7388C166.588 47.5435 165.68 47.3075 164.777 47.0308C163.882 46.7459 163.117 46.2902 162.482 45.6636C161.847 45.0369 161.53 44.2557 161.53 43.3198Z" fill="#482452"/>
<path d="M28.625 3L5 16.125M28.625 3L52.25 16.125M28.625 3L16.8125 9.5625L28.625 16.125L40.437 9.5625L28.625 3ZM5 16.125V45M5 16.125L28.625 29.25M52.25 16.125V45M52.25 16.125L28.625 29.25M5 45L28.625 58.125M5 45V30.5625L16.8125 37.125V51.5625L5 45ZM28.625 29.25V58.125M52.25 45L28.625 58.125M52.25 45V30.5625L40.437 37.125V51.5625L52.25 45Z" stroke="#482452" stroke-width="4"/>
</g>
<defs>
<clipPath id="clip0_647_9">
<rect width="177" height="61" fill="white"/>
</clipPath>
</defs>
</svg>
